<svg xmlns="http://www.w3.org/2000/svg" xmlns:xlink="http://www.w3.org/1999/xlink" version="1.1" width="256" height="256" viewBox="0 0 256 256" xml:space="preserve">

<defs>
</defs>
<g style="stroke: none; stroke-width: 0; stroke-dasharray: none; stroke-linecap: butt; stroke-linejoin: miter; stroke-miterlimit: 10; fill: none; fill-rule: nonzero; opacity: 1;" transform="translate(1.4065934065934016 1.4065934065934016) scale(2.81 2.81)" >
	<path d="M 24.162 33.915 v 19.243 c 0 1.35 1.094 2.444 2.444 2.444 h 12.309 l 4.552 5.03 v -29.16 h -16.86 C 25.256 31.471 24.162 32.565 24.162 33.915 z M 28.904 37.99 h 9.82 c 0.847 0 1.534 0.687 1.534 1.534 c 0 0.847 -0.687 1.534 -1.534 1.534 h -9.82 c -0.847 0 -1.534 -0.687 -1.534 -1.534 C 27.369 38.677 28.056 37.99 28.904 37.99 z M 28.904 46.073 h 9.82 c 0.847 0 1.534 0.687 1.534 1.534 c 0 0.847 -0.687 1.534 -1.534 1.534 h -9.82 c -0.847 0 -1.534 -0.687 -1.534 -1.534 C 27.369 46.76 28.056 46.073 28.904 46.073 z" style="stroke: none; stroke-width: 1; stroke-dasharray: none; stroke-linecap: butt; stroke-linejoin: miter; stroke-miterlimit: 10; fill: rgb(0,0,0); fill-rule: nonzero; opacity: 1;" transform=" matrix(1 0 0 1 0 0) " stroke-linecap="round" />
	<path d="M 46.534 31.471 v 29.16 l 4.552 -5.03 h 12.309 c 1.35 0 2.444 -1.094 2.444 -2.444 V 33.915 c 0 -1.35 -1.094 -2.444 -2.444 -2.444 H 46.534 z M 61.096 49.141 h -9.82 c -0.847 0 -1.534 -0.687 -1.534 -1.534 c 0 -0.847 0.687 -1.534 1.534 -1.534 h 9.82 c 0.847 0 1.534 0.687 1.534 1.534 C 62.63 48.454 61.943 49.141 61.096 49.141 z M 61.096 41.058 h -9.82 c -0.847 0 -1.534 -0.687 -1.534 -1.534 c 0 -0.847 0.687 -1.534 1.534 -1.534 h 9.82 c 0.847 0 1.534 0.687 1.534 1.534 C 62.63 40.372 61.943 41.058 61.096 41.058 z" style="stroke: none; stroke-width: 1; stroke-dasharray: none; stroke-linecap: butt; stroke-linejoin: miter; stroke-miterlimit: 10; fill: rgb(0,0,0); fill-rule: nonzero; opacity: 1;" transform=" matrix(1 0 0 1 0 0) " stroke-linecap="round" />
	<path d="M 17.629 50.282 c 0 -1.172 -0.586 -2.267 -1.56 -2.918 l -3.823 -2.551 h -0.02 c 1.164 -0.605 1.968 -1.808 1.968 -3.21 v -3.267 c 0 -2.006 -1.626 -3.632 -3.632 -3.632 h -0.534 c -2.006 0 -3.632 1.626 -3.632 3.632 v 3.267 c 0 1.403 0.804 2.605 1.968 3.21 H 8.338 l -3.817 2.551 c -0.974 0.651 -1.559 1.745 -1.559 2.916 v 5.015 h 7.333 h 7.333 V 50.282 z" style="stroke: none; stroke-width: 1; stroke-dasharray: none; stroke-linecap: butt; stroke-linejoin: miter; stroke-miterlimit: 10; fill: rgb(0,0,0); fill-rule: nonzero; opacity: 1;" transform=" matrix(1 0 0 1 0 0) " stroke-linecap="round" />
	<path d="M 85.478 47.365 l -3.823 -2.551 h -0.02 c 1.164 -0.605 1.968 -1.808 1.968 -3.21 v -3.267 c 0 -2.006 -1.626 -3.632 -3.632 -3.632 h -0.534 c -2.006 0 -3.632 1.626 -3.632 3.632 v 3.267 c 0 1.403 0.804 2.605 1.968 3.21 h -0.027 l -3.817 2.551 c -0.974 0.651 -1.559 1.745 -1.559 2.916 v 5.015 h 7.333 h 7.333 v -5.013 C 87.038 49.11 86.453 48.015 85.478 47.365 z" style="stroke: none; stroke-width: 1; stroke-dasharray: none; stroke-linecap: butt; stroke-linejoin: miter; stroke-miterlimit: 10; fill: rgb(0,0,0); fill-rule: nonzero; opacity: 1;" transform=" matrix(1 0 0 1 0 0) " stroke-linecap="round" />
	<path d="M 50.773 82.069 l -3.823 -2.551 h -0.02 c 1.164 -0.605 1.968 -1.808 1.968 -3.21 v -3.267 c 0 -2.006 -1.626 -3.632 -3.632 -3.632 h -0.534 c -2.006 0 -3.632 1.626 -3.632 3.632 v 3.267 c 0 1.403 0.804 2.605 1.968 3.21 h -0.027 l -3.817 2.551 c -0.974 0.651 -1.559 1.745 -1.559 2.916 V 90 H 45 h 7.333 v -5.013 C 52.333 83.815 51.748 82.72 50.773 82.069 z" style="stroke: none; stroke-width: 1; stroke-dasharray: none; stroke-linecap: butt; stroke-linejoin: miter; stroke-miterlimit: 10; fill: rgb(0,0,0); fill-rule: nonzero; opacity: 1;" transform=" matrix(1 0 0 1 0 0) " stroke-linecap="round" />
	<path d="M 52.333 20.591 v -5.013 c 0 -1.172 -0.585 -2.267 -1.56 -2.918 l -3.823 -2.551 h -0.02 c 1.164 -0.605 1.968 -1.808 1.968 -3.21 V 3.632 C 48.899 1.626 47.273 0 45.267 0 h -0.534 c -2.006 0 -3.632 1.626 -3.632 3.632 v 3.267 c 0 1.403 0.804 2.605 1.968 3.21 h -0.027 l -3.817 2.551 c -0.974 0.651 -1.559 1.745 -1.559 2.916 v 5.015 H 45 H 52.333 z" style="stroke: none; stroke-width: 1; stroke-dasharray: none; stroke-linecap: butt; stroke-linejoin: miter; stroke-miterlimit: 10; fill: rgb(0,0,0); fill-rule: nonzero; opacity: 1;" transform=" matrix(1 0 0 1 0 0) " stroke-linecap="round" />
	<path d="M 58.474 13.603 c 7.317 3.144 13.346 8.794 16.973 15.91 c 0.265 0.52 0.791 0.819 1.337 0.819 c 0.229 0 0.462 -0.053 0.681 -0.164 c 0.737 -0.376 1.031 -1.279 0.654 -2.018 c -3.944 -7.739 -10.5 -13.884 -18.461 -17.305 c -0.761 -0.328 -1.644 0.026 -1.97 0.786 C 57.36 12.393 57.712 13.275 58.474 13.603 z" style="stroke: none; stroke-width: 1; stroke-dasharray: none; stroke-linecap: butt; stroke-linejoin: miter; stroke-miterlimit: 10; fill: rgb(0,0,0); fill-rule: nonzero; opacity: 1;" transform=" matrix(1 0 0 1 0 0) " stroke-linecap="round" />
	<path d="M 12.536 30.168 c 0.218 0.111 0.451 0.164 0.68 0.164 c 0.546 0 1.072 -0.299 1.337 -0.819 c 3.627 -7.116 9.655 -12.766 16.973 -15.911 c 0.761 -0.327 1.113 -1.209 0.786 -1.97 c -0.326 -0.761 -1.207 -1.112 -1.97 -0.786 c -7.96 3.42 -14.517 9.565 -18.461 17.304 C 11.505 28.888 11.798 29.792 12.536 30.168 z" style="stroke: none; stroke-width: 1; stroke-dasharray: none; stroke-linecap: butt; stroke-linejoin: miter; stroke-miterlimit: 10; fill: rgb(0,0,0); fill-rule: nonzero; opacity: 1;" transform=" matrix(1 0 0 1 0 0) " stroke-linecap="round" />
	<path d="M 31.527 76.398 c -7.318 -3.146 -13.346 -8.796 -16.973 -15.911 c -0.376 -0.737 -1.28 -1.03 -2.018 -0.654 c -0.738 0.376 -1.031 1.279 -0.655 2.018 c 3.944 7.737 10.501 13.883 18.461 17.304 c 0.193 0.083 0.394 0.122 0.592 0.122 c 0.581 0 1.134 -0.34 1.378 -0.908 C 32.64 77.607 32.288 76.726 31.527 76.398 z" style="stroke: none; stroke-width: 1; stroke-dasharray: none; stroke-linecap: butt; stroke-linejoin: miter; stroke-miterlimit: 10; fill: rgb(0,0,0); fill-rule: nonzero; opacity: 1;" transform=" matrix(1 0 0 1 0 0) " stroke-linecap="round" />
	<path d="M 77.464 59.833 c -0.738 -0.376 -1.642 -0.083 -2.018 0.654 c -3.627 7.115 -9.654 12.766 -16.973 15.911 c -0.762 0.327 -1.113 1.209 -0.786 1.97 c 0.244 0.568 0.797 0.908 1.379 0.908 c 0.197 0 0.398 -0.039 0.591 -0.122 c 7.961 -3.421 14.518 -9.566 18.461 -17.304 C 78.495 61.112 78.201 60.209 77.464 59.833 z" style="stroke: none; stroke-width: 1; stroke-dasharray: none; stroke-linecap: butt; stroke-linejoin: miter; stroke-miterlimit: 10; fill: rgb(0,0,0); fill-rule: nonzero; opacity: 1;" transform=" matrix(1 0 0 1 0 0) " stroke-linecap="round" />
</g>
</svg>