<svg xmlns="http://www.w3.org/2000/svg" enable-background="new 0 0 64 64" viewBox="0 0 64 64" id="training"><path d="M47.6 48.1c-.7.1-1.4.3-2 .7L42.8 46v5.7c0 .1 0 .2-.1.3v.1c-.2.4-.5.7-1 .7-.4 0-.8-.3-1-.7V52c0-.1-.1-.2-.1-.3V46l-2.8 2.8c-.6-.3-1.3-.6-2-.7.2-.3.4-.6.6-.9l0 0 4.2-4.2v-6.6h2.1V43l4.2 4.2C47.2 47.5 47.4 47.8 47.6 48.1zM55.4 50.1h-6.8c-2.3 0-4.1 1.8-4.1 4.1v5h15.1v-5C59.5 52 57.7 50.1 55.4 50.1zM52 41c-1.9 0-3.5 1.6-3.5 3.5S50.1 48 52 48s3.5-1.6 3.5-3.5C55.5 42.5 53.9 41 52 41zM34.9 50.1h-6.8c-2.3 0-4.1 1.8-4.1 4.1v5h15v-5C39 52 37.1 50.1 34.9 50.1zM31.5 41c-1.9 0-3.5 1.6-3.5 3.5s1.6 3.5 3.5 3.5c1.9 0 3.5-1.6 3.5-3.5C35 42.5 33.4 41 31.5 41z"></path><g><path d="M62.4,4.8H41.7l0,0H19.6c-0.8,0-1.4,0.6-1.4,1.4s0.6,1.4,1.4,1.4h43c0.4,0,0.7-0.1,1-0.4C63.9,6.9,64,6.5,64,6.1
			C63.9,5.4,63.2,4.8,62.4,4.8z M49.6,13.8c-4,0-7.3,3.3-7.3,7.3s3.3,7.3,7.3,7.3s7.3-3.3,7.3-7.3C56.9,17.1,53.6,13.8,49.6,13.8z
			 M54.2,18.9l-3,2.3l2.7,2.7c0.4,0.4,0.4,1.1,0,1.5c-0.2,0.2-0.5,0.3-0.7,0.3c-0.3,0-0.5-0.1-0.8-0.3l-3.5-3.5c0,0,0-0.1-0.1-0.1
			l0,0c0,0,0-0.1-0.1-0.1c0-0.1-0.1-0.1-0.1-0.2s0-0.1,0-0.2v-0.1v-5c0-0.6,0.5-1.1,1.1-1.1s1.1,0.5,1.1,1.1v2.9l2.3-1.7
			c0.5-0.4,1.1-0.3,1.5,0.2C54.8,17.9,54.7,18.5,54.2,18.9z M49.6,13.8c-4,0-7.3,3.3-7.3,7.3s3.3,7.3,7.3,7.3s7.3-3.3,7.3-7.3
			C56.9,17.1,53.6,13.8,49.6,13.8z M54.2,18.9l-3,2.3l2.7,2.7c0.4,0.4,0.4,1.1,0,1.5c-0.2,0.2-0.5,0.3-0.7,0.3
			c-0.3,0-0.5-0.1-0.8-0.3l-3.5-3.5c0,0,0-0.1-0.1-0.1l0,0c0,0,0-0.1-0.1-0.1c0-0.1-0.1-0.1-0.1-0.2s0-0.1,0-0.2v-0.1v-5
			c0-0.6,0.5-1.1,1.1-1.1s1.1,0.5,1.1,1.1v2.9l2.3-1.7c0.5-0.4,1.1-0.3,1.5,0.2C54.8,17.9,54.7,18.5,54.2,18.9z M49.6,13.8
			c-4,0-7.3,3.3-7.3,7.3s3.3,7.3,7.3,7.3s7.3-3.3,7.3-7.3C56.9,17.1,53.6,13.8,49.6,13.8z M54.2,18.9l-3,2.3l2.7,2.7
			c0.4,0.4,0.4,1.1,0,1.5c-0.2,0.2-0.5,0.3-0.7,0.3c-0.3,0-0.5-0.1-0.8-0.3l-3.5-3.5c0,0,0-0.1-0.1-0.1l0,0c0,0,0-0.1-0.1-0.1
			c0-0.1-0.1-0.1-0.1-0.2s0-0.1,0-0.2v-0.1v-5c0-0.6,0.5-1.1,1.1-1.1s1.1,0.5,1.1,1.1v2.9l2.3-1.7c0.5-0.4,1.1-0.3,1.5,0.2
			C54.8,17.9,54.7,18.5,54.2,18.9z M49.6,13.8c-4,0-7.3,3.3-7.3,7.3s3.3,7.3,7.3,7.3s7.3-3.3,7.3-7.3C56.9,17.1,53.6,13.8,49.6,13.8
			z M54.2,18.9l-3,2.3l2.7,2.7c0.4,0.4,0.4,1.1,0,1.5c-0.2,0.2-0.5,0.3-0.7,0.3c-0.3,0-0.5-0.1-0.8-0.3l-3.5-3.5c0,0,0-0.1-0.1-0.1
			l0,0c0,0,0-0.1-0.1-0.1c0-0.1-0.1-0.1-0.1-0.2s0-0.1,0-0.2v-0.1v-5c0-0.6,0.5-1.1,1.1-1.1s1.1,0.5,1.1,1.1v2.9l2.3-1.7
			c0.5-0.4,1.1-0.3,1.5,0.2C54.8,17.9,54.7,18.5,54.2,18.9z M49.6,13.8c-4,0-7.3,3.3-7.3,7.3s3.3,7.3,7.3,7.3s7.3-3.3,7.3-7.3
			C56.9,17.1,53.6,13.8,49.6,13.8z M54.2,18.9l-3,2.3l2.7,2.7c0.4,0.4,0.4,1.1,0,1.5c-0.2,0.2-0.5,0.3-0.7,0.3
			c-0.3,0-0.5-0.1-0.8-0.3l-3.5-3.5c0,0,0-0.1-0.1-0.1l0,0c0,0,0-0.1-0.1-0.1c0-0.1-0.1-0.1-0.1-0.2s0-0.1,0-0.2v-0.1v-5
			c0-0.6,0.5-1.1,1.1-1.1s1.1,0.5,1.1,1.1v2.9l2.3-1.7c0.5-0.4,1.1-0.3,1.5,0.2C54.8,17.9,54.7,18.5,54.2,18.9z M49.6,13.8
			c-4,0-7.3,3.3-7.3,7.3s3.3,7.3,7.3,7.3s7.3-3.3,7.3-7.3C56.9,17.1,53.6,13.8,49.6,13.8z M54.2,18.9l-3,2.3l2.7,2.7
			c0.4,0.4,0.4,1.1,0,1.5c-0.2,0.2-0.5,0.3-0.7,0.3c-0.3,0-0.5-0.1-0.8-0.3l-3.5-3.5c0,0,0-0.1-0.1-0.1l0,0c0,0,0-0.1-0.1-0.1
			c0-0.1-0.1-0.1-0.1-0.2s0-0.1,0-0.2v-0.1v-5c0-0.6,0.5-1.1,1.1-1.1s1.1,0.5,1.1,1.1v2.9l2.3-1.7c0.5-0.4,1.1-0.3,1.5,0.2
			C54.8,17.9,54.7,18.5,54.2,18.9z M22.4,9.7v10.8c0.9,1.5,1.5,3.3,1.5,5.3v9.1h34.8c1.2,0,2.3-1,2.3-2.3V9.7H22.4z M35.4,22
			c0-0.6,0.5-1.1,1.1-1.1s1.1,0.5,1.1,1.1v6.9c0,0.6-0.5,1.1-1.1,1.1s-1.1-0.5-1.1-1.1V22z M32.8,25.6c0-0.6,0.5-1.1,1.1-1.1
			S35,25,35,25.6V29c0,0.6-0.5,1.1-1.1,1.1s-1.1-0.5-1.1-1.1C32.8,29,32.8,25.6,32.8,25.6z M30.1,24.3c0-0.6,0.5-1.1,1.1-1.1
			s1.1,0.5,1.1,1.1V29c0,0.6-0.5,1.1-1.1,1.1s-1.1-0.5-1.1-1.1C30.1,29,30.1,24.3,30.1,24.3z M27.5,26.9c0-0.6,0.5-1.1,1.1-1.1
			s1.1,0.5,1.1,1.1v2c0,0.6-0.5,1.1-1.1,1.1s-1.1-0.5-1.1-1.1V26.9z M38.1,33H26.8c-0.6,0-1.1-0.5-1.1-1.1s0.5-1.1,1.1-1.1h11.4
			c0.6,0,1.1,0.5,1.1,1.1C39.2,32.5,38.7,33,38.1,33z M49.6,30.5c-5.2,0-9.4-4.2-9.4-9.4s4.2-9.4,9.4-9.4s9.4,4.2,9.4,9.4
			S54.8,30.5,49.6,30.5z M49.6,13.8c-4,0-7.3,3.3-7.3,7.3s3.3,7.3,7.3,7.3s7.3-3.3,7.3-7.3C56.9,17.1,53.6,13.8,49.6,13.8z
			 M54.2,18.9l-3,2.3l2.7,2.7c0.4,0.4,0.4,1.1,0,1.5c-0.2,0.2-0.5,0.3-0.7,0.3c-0.3,0-0.5-0.1-0.8-0.3l-3.5-3.5c0,0,0-0.1-0.1-0.1
			l0,0c0,0,0-0.1-0.1-0.1c0-0.1-0.1-0.1-0.1-0.2s0-0.1,0-0.2v-0.1v-5c0-0.6,0.5-1.1,1.1-1.1s1.1,0.5,1.1,1.1v2.9l2.3-1.7
			c0.5-0.4,1.1-0.3,1.5,0.2C54.8,17.9,54.7,18.5,54.2,18.9z M49.6,13.8c-4,0-7.3,3.3-7.3,7.3s3.3,7.3,7.3,7.3s7.3-3.3,7.3-7.3
			C56.9,17.1,53.6,13.8,49.6,13.8z M54.2,18.9l-3,2.3l2.7,2.7c0.4,0.4,0.4,1.1,0,1.5c-0.2,0.2-0.5,0.3-0.7,0.3
			c-0.3,0-0.5-0.1-0.8-0.3l-3.5-3.5c0,0,0-0.1-0.1-0.1l0,0c0,0,0-0.1-0.1-0.1c0-0.1-0.1-0.1-0.1-0.2s0-0.1,0-0.2v-0.1v-5
			c0-0.6,0.5-1.1,1.1-1.1s1.1,0.5,1.1,1.1v2.9l2.3-1.7c0.5-0.4,1.1-0.3,1.5,0.2C54.8,17.9,54.7,18.5,54.2,18.9z M49.6,13.8
			c-4,0-7.3,3.3-7.3,7.3s3.3,7.3,7.3,7.3s7.3-3.3,7.3-7.3C56.9,17.1,53.6,13.8,49.6,13.8z M54.2,18.9l-3,2.3l2.7,2.7
			c0.4,0.4,0.4,1.1,0,1.5c-0.2,0.2-0.5,0.3-0.7,0.3c-0.3,0-0.5-0.1-0.8-0.3l-3.5-3.5c0,0,0-0.1-0.1-0.1l0,0c0,0,0-0.1-0.1-0.1
			c0-0.1-0.1-0.1-0.1-0.2s0-0.1,0-0.2v-0.1v-5c0-0.6,0.5-1.1,1.1-1.1s1.1,0.5,1.1,1.1v2.9l2.3-1.7c0.5-0.4,1.1-0.3,1.5,0.2
			C54.8,17.9,54.7,18.5,54.2,18.9z M49.6,13.8c-4,0-7.3,3.3-7.3,7.3s3.3,7.3,7.3,7.3s7.3-3.3,7.3-7.3C56.9,17.1,53.6,13.8,49.6,13.8
			z M54.2,18.9l-3,2.3l2.7,2.7c0.4,0.4,0.4,1.1,0,1.5c-0.2,0.2-0.5,0.3-0.7,0.3c-0.3,0-0.5-0.1-0.8-0.3l-3.5-3.5c0,0,0-0.1-0.1-0.1
			l0,0c0,0,0-0.1-0.1-0.1c0-0.1-0.1-0.1-0.1-0.2s0-0.1,0-0.2v-0.1v-5c0-0.6,0.5-1.1,1.1-1.1s1.1,0.5,1.1,1.1v2.9l2.3-1.7
			c0.5-0.4,1.1-0.3,1.5,0.2C54.8,17.9,54.7,18.5,54.2,18.9z M49.6,13.8c-4,0-7.3,3.3-7.3,7.3s3.3,7.3,7.3,7.3s7.3-3.3,7.3-7.3
			C56.9,17.1,53.6,13.8,49.6,13.8z M54.2,18.9l-3,2.3l2.7,2.7c0.4,0.4,0.4,1.1,0,1.5c-0.2,0.2-0.5,0.3-0.7,0.3
			c-0.3,0-0.5-0.1-0.8-0.3l-3.5-3.5c0,0,0-0.1-0.1-0.1l0,0c0,0,0-0.1-0.1-0.1c0-0.1-0.1-0.1-0.1-0.2s0-0.1,0-0.2v-0.1v-5
			c0-0.6,0.5-1.1,1.1-1.1s1.1,0.5,1.1,1.1v2.9l2.3-1.7c0.5-0.4,1.1-0.3,1.5,0.2C54.8,17.9,54.7,18.5,54.2,18.9z M49.6,13.8
			c-4,0-7.3,3.3-7.3,7.3s3.3,7.3,7.3,7.3s7.3-3.3,7.3-7.3C56.9,17.1,53.6,13.8,49.6,13.8z M54.2,18.9l-3,2.3l2.7,2.7
			c0.4,0.4,0.4,1.1,0,1.5c-0.2,0.2-0.5,0.3-0.7,0.3c-0.3,0-0.5-0.1-0.8-0.3l-3.5-3.5c0,0,0-0.1-0.1-0.1l0,0c0,0,0-0.1-0.1-0.1
			c0-0.1-0.1-0.1-0.1-0.2s0-0.1,0-0.2v-0.1v-5c0-0.6,0.5-1.1,1.1-1.1s1.1,0.5,1.1,1.1v2.9l2.3-1.7c0.5-0.4,1.1-0.3,1.5,0.2
			C54.8,17.9,54.7,18.5,54.2,18.9z M49.6,13.8c-4,0-7.3,3.3-7.3,7.3s3.3,7.3,7.3,7.3s7.3-3.3,7.3-7.3C56.9,17.1,53.6,13.8,49.6,13.8
			z M54.2,18.9l-3,2.3l2.7,2.7c0.4,0.4,0.4,1.1,0,1.5c-0.2,0.2-0.5,0.3-0.7,0.3c-0.3,0-0.5-0.1-0.8-0.3l-3.5-3.5c0,0,0-0.1-0.1-0.1
			l0,0c0,0,0-0.1-0.1-0.1c0-0.1-0.1-0.1-0.1-0.2s0-0.1,0-0.2v-0.1v-5c0-0.6,0.5-1.1,1.1-1.1s1.1,0.5,1.1,1.1v2.9l2.3-1.7
			c0.5-0.4,1.1-0.3,1.5,0.2C54.8,17.9,54.7,18.5,54.2,18.9z M13.8,17.8h-2.1c-0.2,0-0.5,0-0.8,0s-0.5,0-0.8,0H8c-4.4,0-8,3.6-8,8
			v9.7c0,1.5,0.9,2.7,2.1,3.2V24.6c0-0.6,0.5-1.1,1.1-1.1s1.1,0.5,1.1,1.1v32.7c0,1,0.8,1.9,1.9,1.9c1,0,1.9-0.9,1.9-1.9v-13
			c0-1.6,1.3-2.9,2.9-2.9s2.9,1.3,2.9,2.9v13c0,1,0.8,1.9,1.9,1.9s1.9-0.9,1.9-1.9V24.6c0-0.6,0.5-1.1,1.1-1.1s1.1,0.5,1.1,1.1v14.1
			c1.3-0.5,2.1-1.8,2.1-3.2v-9.7C21.8,21.4,18.2,17.8,13.8,17.8z M10.9,5.4c-2.9,0-5.1,2.1-5.1,4.8c0,2.8,2.2,5.2,4.7,5.5h0.8
			c2.6-0.2,4.7-2.7,4.7-5.5C16,7.5,13.8,5.4,10.9,5.4z"></path></g></svg>